<svg width="84" height="94" viewBox="0 0 84 94" fill="none" xmlns="http://www.w3.org/2000/svg">
<path d="M38.5005 0.0128449L66.3598 0.00761422L74.4702 0.00725049C74.9437 0.00667892 75.4181 -0.0022587 75.891 0.00489468C76.9449 0.0339239 78.0935 -0.0696354 79.1334 0.102427C81.4708 0.489142 83.2972 2.66474 83.3151 5.02442C83.3279 6.69763 83.3213 8.33768 83.3199 9.99385L83.3182 19.3765L83.3192 48.229L83.3208 64.7483V69.8157C83.3204 71.9373 83.5226 73.7094 81.9151 75.3818C80.8441 76.4961 79.5612 76.9797 78.0252 76.9944C76.7293 77.0069 75.4247 76.9698 74.1338 77.0039C74.14 79.1236 74.2956 80.8531 72.6747 82.5155C71.9199 83.3006 70.9337 83.8237 69.8603 84.0083C69.0405 84.1464 67.3116 84.1006 66.4276 84.1001L60.708 84.0961L39.1814 84.1067C39.8319 85.3973 39.9739 86.511 39.8227 87.9311C39.4843 89.9179 38.4466 91.5601 36.7203 92.6261C35.56 93.3425 34.324 93.5436 32.9782 93.5531C30.864 93.5679 28.7504 93.5606 26.6366 93.5604L14.6855 93.558L9.21737 93.5608C8.05517 93.5623 6.37731 93.6162 5.28977 93.421C4.0565 93.2021 2.91823 92.6154 2.02444 91.7378C0.784048 90.5272 0.00950896 88.8106 0 87.0713C0.00032909 86.2409 0.158569 85.4182 0.466286 84.6469C0.745596 83.9555 1.1756 83.2575 1.55065 82.6088L3.07488 79.9751L8.17901 71.1238C8.63246 70.3405 9.38642 69.1903 9.72573 68.3405C9.83121 68.0764 9.79172 66.9256 9.79155 66.5513L9.78982 63.6882L9.78757 54.2919L9.78843 23.4802L9.78687 15.5237C9.78566 14.6107 9.73404 12.1685 9.85927 11.3977C10.0363 10.3402 10.5377 9.36381 11.2941 8.60381C12.8367 7.05426 14.3633 7.10028 16.3863 7.09919L19.3947 7.09839L30.8169 7.10572C33.1342 4.87788 35.3741 2.45287 37.7278 0.258017C37.9133 0.0849849 38.2542 0.0425149 38.5005 0.0128449Z" fill="white"/>
<path d="M40.1734 2.8527L66.4104 2.85513L74.3892 2.85452C75.7371 2.85269 77.1446 2.82172 78.4902 2.88594C78.8908 2.90506 79.47 3.20644 79.7589 3.4879C80.3705 4.08348 80.485 4.74022 80.4843 5.54937C80.4802 10.2764 80.4795 15.0075 80.4796 19.7338L80.4812 48.9632L80.4814 64.5906L80.4812 69.4747C80.4814 70.1316 80.5172 71.4211 80.4649 72.0462C80.4204 72.5852 80.1823 73.0898 79.7946 73.4669C78.9319 74.3192 77.7144 74.1538 76.5979 74.1498L73.5184 74.1434L62.034 74.145L43.3574 74.1443H37.2147C35.9874 74.1444 34.6811 74.1233 33.4607 74.1673L27.9489 64.6213L26.4143 61.9487C25.1853 59.8088 24.3561 58.3209 21.8265 57.5391L21.827 20.9582L30.539 20.9609C32.1864 20.9611 34.1729 21.0383 35.7939 20.8587C37.3954 20.6812 39.0524 19.1577 39.606 17.639C39.7669 17.198 39.8707 16.738 39.9145 16.2707C40.0115 15.2533 39.9521 13.3693 39.9522 12.2913L39.95 4.94575C39.9489 4.68437 39.9088 3.01616 39.986 2.88097L40.1734 2.8527Z" fill="#2D1F41"/>
<path d="M59.698 11.112C62.6617 10.938 63.4105 12.6665 64.7054 14.8991L66.7958 18.5083L69.4789 23.1653C69.9808 24.0402 71.2451 26.0784 71.4531 26.9474C71.7046 28.0008 71.5246 29.1111 70.953 30.031C70.7277 30.3829 70.4501 30.6987 70.1296 30.967C69.5087 31.4918 67.3059 32.7879 66.4719 32.9497C65.262 33.1847 64.3148 32.9831 63.2915 32.3381C62.4788 33.2533 60.166 35.1196 59.1669 35.8604L68.6392 49.898L71.5444 54.195C72.0051 54.8767 72.7897 55.9723 73.1557 56.6739C73.8993 58.1089 74.0338 59.7828 73.5291 61.3182C72.9851 63.007 71.7889 64.4086 70.2065 65.2112C68.6201 65.997 66.7871 66.1235 65.1077 65.563C62.2587 64.5884 61.5811 62.4015 60.3776 59.9284L58.2207 55.484C57.8641 54.7834 57.5166 54.0613 57.1773 53.3518C55.1384 49.0908 52.9868 44.8698 50.9705 40.5991C49.3665 41.2781 47.5534 41.9516 45.8708 42.4091C45.8951 43.2458 45.7276 44.067 45.2946 44.7898C45.0686 45.1646 44.7843 45.501 44.4525 45.7864C43.7881 46.3592 41.619 47.5855 40.7724 47.7864C39.7266 48.0249 38.6288 47.8398 37.7191 47.2715C36.6108 46.5854 35.9555 45.157 35.3194 44.0509L33.1704 40.3218L30.5212 35.7384C29.9649 34.7803 28.8049 33.0044 28.5739 31.9839C28.3345 30.9296 28.5263 29.8233 29.1061 28.9109C29.3329 28.5625 29.6102 28.2499 29.9289 27.9832C30.56 27.4561 31.549 26.9661 32.2739 26.5423C33.721 25.6958 35.3284 25.7097 36.7476 26.6431C37.5871 25.7407 38.9735 24.5871 39.9412 23.8216C44.3896 20.3017 48.8155 18.2012 54.1882 16.5435C54.1402 14.6199 54.9523 13.406 56.6276 12.4836C57.7612 11.8594 58.3738 11.3236 59.698 11.112Z" fill="white"/>
<path d="M55.1779 19.226C55.2082 19.237 55.2387 19.2483 55.269 19.2594C56.9759 22.1292 59.957 27.4315 61.546 30.0883C56.2656 35.0886 51.755 37.6297 44.8426 39.7632C44.7033 39.7231 39.1628 30.044 38.4879 28.8778C43.6714 24.0241 48.3224 21.2457 55.1779 19.226Z" fill="#2D1F41"/>
<path d="M56.7934 37.4988C57.043 37.6763 61.6899 44.7008 62.2734 45.5651L67.6456 53.5206C68.5585 54.8721 69.4809 56.2191 70.3829 57.5778C70.5698 57.8978 70.8225 58.2687 70.8977 58.6355C71.3454 60.8202 69.9229 62.5401 67.8908 63.0088C65.8652 63.3017 64.5592 62.3679 63.8475 60.5358C63.7145 60.1935 63.4616 59.7362 63.2959 59.3959L61.1422 54.9745L53.5474 39.3742C54.658 38.7999 55.7412 38.1739 56.7934 37.4988Z" fill="#2D1F41"/>
<path d="M59.8368 13.9535C60.4193 13.896 60.8348 13.9859 61.1655 14.5124C61.7173 15.3911 62.2236 16.303 62.7418 17.2026L65.5985 22.1515L67.6158 25.6424C67.9643 26.2457 68.3708 26.8888 68.6505 27.5172C69.0534 28.4224 67.9761 29.066 67.3194 29.4117C66.8314 29.6687 66.3594 29.9982 65.8439 30.1875C64.6375 30.3735 64.1285 28.8926 63.612 27.9959L61.7713 24.8018L58.7856 19.6344C58.2483 18.7047 57.706 17.7785 57.1864 16.8398C56.6194 15.8147 57.5069 15.2333 58.3086 14.7835C58.8178 14.4979 59.3068 14.2077 59.8368 13.9535Z" fill="#2D1F41"/>
<path d="M34.3511 28.7623C35.0048 28.7739 35.2883 29.0422 35.612 29.5821C36.1602 30.4963 36.6838 31.4273 37.2143 32.3522L40.1283 37.4023L42.0261 40.6766C42.398 41.3194 43.3153 42.5621 42.8989 43.2338C42.5108 43.8596 40.6796 44.8652 39.9872 45.0647C39.3423 45.006 39.0896 44.8496 38.7517 44.2914C38.191 43.3651 37.6673 42.4152 37.1276 41.4761L34.1545 36.3366L32.2913 33.1105C31.5758 31.8721 30.52 30.7426 32.3315 29.7846C32.9677 29.4482 33.6446 28.9354 34.3511 28.7623Z" fill="#2D1F41"/>
<path d="M19.872 60.1417C19.9032 60.1406 19.9345 60.1394 19.9657 60.1384C20.8953 60.1128 21.7954 60.4657 22.4598 61.1167C23.0673 61.7094 23.6846 62.9081 24.1257 63.6759L25.6113 66.2536L31.2869 76.0837L34.8771 82.3062C36.2574 84.7032 38.4742 87.2893 35.7466 89.8133C35.4242 90.1116 34.7645 90.5144 34.3299 90.5712C32.7411 90.7789 31.042 90.6949 29.4324 90.6946L20.2213 90.6925L10.5871 90.6953L7.90229 90.6961C6.53286 90.6963 5.27482 90.8255 4.1763 89.8498C2.91275 88.7276 2.45249 86.9577 3.23978 85.4217C3.55459 84.8075 3.90263 84.2279 4.24639 83.6337L6.00739 80.5892L11.5559 70.9776L15.0702 64.8865C15.549 64.0514 16.0414 63.201 16.5184 62.3663C17.342 60.9254 18.191 60.2269 19.872 60.1417Z" fill="#2D1F41"/>
<path d="M19.7117 69.9746C20.0394 69.9564 20.321 69.9851 20.618 70.1355C20.8964 70.2765 21.1635 70.53 21.2547 70.8354C21.4314 71.4272 21.4226 77.2152 21.3419 78.0589C21.3228 78.2579 21.28 78.4292 21.1808 78.604C20.9553 79.0012 20.6089 79.1861 20.1807 79.3011C19.0802 79.3761 18.5273 78.7552 18.5306 77.6983C18.537 75.563 18.4876 73.421 18.5489 71.2866C18.5701 70.548 19.0372 70.1559 19.7117 69.9746Z" fill="white"/>
<path d="M19.6505 82.4315C20.4232 82.2678 21.1815 82.7647 21.3396 83.5386C21.4978 84.3125 20.9955 85.0671 20.2204 85.2199C19.4532 85.3709 18.7078 84.8747 18.5512 84.1086C18.3946 83.3425 18.8855 82.5936 19.6505 82.4315Z" fill="white"/>
<path d="M14.7855 9.95959C19.1184 9.83893 23.65 10.0405 27.9971 9.94351C25.0555 12.8172 22.0927 15.8303 19.2166 18.7746C19.0041 18.9922 18.9878 19.5703 18.9849 19.8778C18.9736 21.0576 18.9793 22.2405 18.9793 23.4214L18.9795 31.1389L18.9812 56.5572L18.9871 57.3542C15.4742 57.7169 14.1187 60.7708 12.6189 63.4757C12.6657 61.9789 12.6352 60.3413 12.6354 58.8356L12.6359 50.666V25.7046L12.6352 16.5808L12.6329 13.8589C12.6234 12.1445 12.4736 10.2043 14.7855 9.95959Z" fill="#2D1F41"/>
<path d="M36.2559 76.9915H59.7612C63.5716 76.9915 67.4858 76.9475 71.2887 77.0038C71.2958 78.5765 71.5827 80.0492 70.0245 80.9868C69.7765 81.093 69.4734 81.2099 69.207 81.2177C68.0456 81.2516 66.851 81.2374 65.69 81.2367L59.022 81.2348L37.5432 81.2421C36.8368 79.9444 35.86 78.2598 35.0862 77.0027L36.2559 76.9915Z" fill="#2D1F41"/>
<path d="M37.01 4.94824C37.097 5.04777 37.0902 5.00071 37.0911 5.12249C37.1102 7.39286 37.0966 9.67882 37.1006 11.9485L37.1041 14.5333C37.1046 15.121 37.1179 15.6971 37.0405 16.2806C36.9636 17.0129 36.0969 17.9664 35.344 18.0449C34.1707 18.167 32.8244 18.1152 31.6344 18.1143L23.9682 18.1138L23.9466 18.0947L23.9438 18.0291L32.421 9.55197C33.913 8.06015 35.5799 6.46883 37.01 4.94824Z" fill="#2D1F41"/>
</svg>
