<svg width="193" height="217" viewBox="0 0 193 217" fill="none" xmlns="http://www.w3.org/2000/svg">
<path d="M0 20C0 8.9543 8.95431 0 20 0H173C184.046 0 193 8.95431 193 20V150C193 161.046 184.046 170 173 170H20C8.95431 170 0 161.046 0 150V20Z" fill="url(#paint0_linear_2003_104)"/>
<g clip-path="url(#clip0_2003_104)">
<path d="M118.634 131.463C120.489 132.266 122.489 133.18 124.351 133.93C124.073 135.525 123.629 137.181 123.382 138.71C129.273 140.018 135.288 141.126 141.18 142.444C142.271 142.689 145.532 143.231 146.375 143.572L159.241 148.98L176.019 154.052C173.667 155.335 153.944 165.379 151.51 166.576L136.509 173.972L94.6603 194.701C92.3577 193.631 88.6006 192.304 86.1321 191.338L69.1357 184.724L24.1842 167.18C26.1066 166.275 28.3492 165.376 30.3222 164.527L44.2191 158.637C55.8357 153.699 67.5257 148.935 79.2851 144.345C80.0982 145.369 81.1696 146.156 82.3887 146.628C83.881 147.204 85.5206 147.278 87.0587 146.839C90.3726 145.891 92.5816 142.767 92.371 139.327C95.1883 138.377 98.1523 137.16 100.987 136.177C102.333 135.71 105.97 134.475 107.129 133.88C108.048 134.932 108.565 135.259 109.827 135.891C111.726 136.557 113.168 136.404 115.004 135.756C115.124 135.696 115.242 135.633 115.358 135.568C117.052 134.624 118.103 133.328 118.634 131.463Z" fill="#FD4831"/>
<path d="M82.3887 146.628C83.8809 147.204 85.5205 147.278 87.0586 146.839C88.4844 147.604 94.0701 150.404 95.1479 151.617C95.389 151.888 96.3926 156.14 96.5682 156.836C97.5713 160.735 98.5435 164.64 99.4846 168.554L72.3594 162.906C73.0645 159.107 74.0241 155.273 74.7887 151.483C75.1353 149.763 77.1279 149.27 78.5256 148.555C79.7941 147.907 81.107 147.296 82.3887 146.628Z" fill="#01013F"/>
<path d="M115.004 135.756C121.667 138.493 121.103 138.517 123.026 145.34L125.987 155.936L108.913 152.342C106.532 151.846 102.38 151.11 100.191 150.473C100.614 148.395 101.702 141.756 102.502 140.416C103.189 139.266 104.485 138.291 105.594 137.554C106.974 136.638 108.207 136.211 109.827 135.891C111.726 136.557 113.168 136.404 115.004 135.756Z" fill="#01013F"/>
<path d="M115.726 123.543C116.533 121.522 117.578 119.279 118.46 117.264L123.988 104.602C125.823 100.267 127.689 95.9453 129.586 91.6365C130.532 89.4682 132.134 85.3332 133.562 83.4305C134.297 82.4515 137.499 82.0899 138.882 82.1665C146.394 82.5824 154.071 86.0078 159.241 91.5043V91.9307V98.4978V98.7766V99.155V99.9613V148.98L146.374 143.572C145.532 143.231 142.271 142.689 141.18 142.444C135.288 141.126 129.273 140.018 123.382 138.71C123.629 137.181 124.072 135.525 124.351 133.93C122.489 133.18 120.489 132.266 118.634 131.463C119.554 128.454 118.371 125.606 115.954 123.726L115.841 123.752L115.726 123.543Z" fill="#4603FA"/>
<path d="M143.558 135.499C143.775 135.151 144.656 133.048 144.855 132.594L147.779 125.929C151.572 117.342 155.331 108.46 159.241 99.9612V148.98L146.375 143.572C145.509 141.177 144.263 137.884 143.558 135.499Z" fill="#120136"/>
<path d="M159.241 98.4978C154.258 100.916 145.286 97.237 140.876 94.6506C138.146 93.0496 132.709 89.2112 132.782 85.6158C132.845 82.5177 137.646 82.2295 139.956 82.4736C146.761 83.1929 154.776 86.6468 159.241 91.9307V98.4978Z" fill="#4603FA"/>
<path d="M130.829 125.478C132.499 126.58 134.601 126.8 136.462 126.067C137.677 126.734 140.562 128.148 141.207 129.227C142.033 130.61 142.934 133.613 143.428 135.235L143.558 135.499C144.263 137.884 147.401 146.107 148.267 148.502C147.424 148.16 139.897 144.836 138.806 144.591C133.381 142.194 129.975 141.185 123.382 138.71C123.629 137.181 124.073 135.525 124.351 133.93C124.862 132.239 124.992 129.912 126.267 128.625C127.368 127.514 129.454 126.273 130.829 125.478Z" fill="#01013F"/>
<path d="M130.829 125.478C128.467 123.92 127.476 120.949 128.43 118.285C129.384 115.621 132.036 113.954 134.85 114.248C137.665 114.542 139.915 116.721 140.297 119.525C140.679 122.328 139.096 125.03 136.462 126.067C134.601 126.8 132.499 126.58 130.829 125.478Z" fill="#8894F9"/>
<path d="M115.726 123.543C116.533 121.522 117.578 119.279 118.46 117.264L123.988 104.602C125.823 100.267 127.689 95.9453 129.586 91.6365C130.532 89.4682 132.134 85.3332 133.562 83.4305C134.297 82.4515 137.499 82.0899 138.882 82.1665C146.394 82.5824 154.071 86.0078 159.241 91.5043V91.9307C154.776 86.6468 146.761 83.1929 139.956 82.4736C137.646 82.2295 132.845 82.5177 132.782 85.6158C132.709 89.2112 138.146 93.0497 140.876 94.6506C145.286 97.237 154.257 100.916 159.241 98.4978V98.7766C152.652 102.191 133.412 93.6432 132.502 85.7091C129.164 93.2536 125.872 100.819 122.627 108.404L118.732 117.359C117.849 119.355 116.722 121.727 115.954 123.726L115.841 123.752L115.726 123.543Z" fill="#F0E5FE"/>
<path d="M159.241 99.155V99.9613C155.331 108.46 151.572 117.342 147.779 125.929L144.855 132.595C144.656 133.048 143.775 135.151 143.558 135.499L143.428 135.235C143.78 134.137 144.752 132.107 145.24 131L148.854 122.817L159.241 99.155Z" fill="#F0E5FE"/>
<path d="M129.267 109.113C129.829 108.951 130.417 109.268 130.592 109.825C130.767 110.383 130.464 110.978 129.911 111.165C129.541 111.291 129.133 111.206 128.843 110.944C128.554 110.682 128.429 110.284 128.517 109.904C128.605 109.524 128.892 109.221 129.267 109.113Z" fill="#C3B3F8"/>
<path d="M125.443 103.825C125.956 103.573 126.577 103.781 126.835 104.291C127.092 104.802 126.889 105.425 126.381 105.687C125.866 105.952 125.233 105.746 124.973 105.229C124.712 104.711 124.924 104.081 125.443 103.825Z" fill="#C3B3F8"/>
<path d="M79.2851 144.345C77.3151 141.867 77.1554 138.405 78.8887 135.756C80.622 133.106 83.8582 131.865 86.9192 132.676C89.9802 133.487 92.1772 136.167 92.3709 139.327C92.5816 142.767 90.3725 145.891 87.0587 146.839C85.5205 147.278 83.8809 147.204 82.3887 146.628C81.1695 146.156 80.0981 145.369 79.2851 144.345Z" fill="#8894F9"/>
<path d="M107.129 133.88C106.708 133.327 106.366 132.719 106.113 132.072C104.52 127.895 107.141 123.042 111.725 122.649C113.342 122.51 114.264 122.874 115.726 123.543L115.841 123.752L115.955 123.726C118.371 125.606 119.554 128.454 118.634 131.463C118.103 133.328 117.052 134.624 115.358 135.568C115.242 135.633 115.124 135.696 115.004 135.756C113.168 136.404 111.726 136.557 109.827 135.891C108.565 135.259 108.049 134.932 107.129 133.88Z" fill="#8894F9"/>
<path d="M26.5848 61.7592C26.6187 60.6063 26.5283 55.4613 26.8334 54.7981C28.4355 54.5787 31.7076 54.6735 33.4424 54.6758L45.0936 54.6987L64.7209 54.7511C68.1607 54.7563 71.6235 54.7473 75.0635 54.78C75.5355 54.7846 76.8711 54.9036 77.1866 55.1854C77.8144 55.7457 78.023 56.8116 77.9926 57.6125C77.9463 58.8317 78.063 60.6907 77.8671 61.8484C77.9469 64.313 77.854 67.1005 77.8423 69.5897L77.7474 85.0602L77.8459 85.1202C78.2267 85.1799 78.3377 85.1639 78.6051 85.4258C78.7291 85.7688 78.7307 85.6231 78.6128 85.956C78.2963 86.1704 78.2293 86.2064 77.7743 86.1608C77.5691 87.5504 78.0089 93.0817 77.5019 93.9736C76.7153 94.1727 73.8941 94.099 72.9006 94.0946L64.6963 94.0575L26.2581 93.9029L26.429 72.5415L26.4646 65.6824C26.4686 64.6966 26.4248 62.8575 26.534 61.9286C26.8832 61.7626 27.3459 61.8204 27.7521 61.8281L26.5848 61.7592Z" fill="#8894F9"/>
<path d="M26.5848 61.7592C26.6188 60.6063 26.5284 55.4613 26.8335 54.7981C28.4356 54.5787 31.7077 54.6735 33.4424 54.6758L45.0937 54.6987L64.721 54.7511C68.1608 54.7563 71.6236 54.7473 75.0636 54.78C75.5355 54.7846 76.8712 54.9036 77.1867 55.1854C77.8145 55.7457 78.0231 56.8116 77.9927 57.6125C77.9464 58.8317 78.0631 60.6907 77.8672 61.8484C75.9218 61.9299 73.536 61.8673 71.5648 61.8666L59.8364 61.8611L27.7522 61.8281L26.5848 61.7592Z" fill="#01013F"/>
<path d="M42.1628 57.118C51.3148 57.2591 60.5865 57.0358 69.7472 57.2187L69.7346 59.3919L42.1492 59.3793C42.1155 58.6467 42.1477 57.8556 42.1628 57.118Z" fill="white"/>
<path d="M35.7224 57.1771C36.115 57.0569 36.5419 57.1614 36.8344 57.4495C37.127 57.7376 37.2381 58.1628 37.1237 58.5571C37.0094 58.9513 36.6882 59.2513 36.2869 59.3383C35.7012 59.4654 35.1194 59.1082 34.9679 58.5284C34.8165 57.9486 35.1493 57.3525 35.7224 57.1771Z" fill="white"/>
<path d="M31.5002 57.1861C32.0774 56.976 32.716 57.2716 32.9288 57.8477C33.1417 58.4238 32.8488 59.0635 32.2736 59.279C31.6946 59.4957 31.0497 59.2006 30.8354 58.6209C30.6212 58.041 30.9193 57.3976 31.5002 57.1861Z" fill="white"/>
<path d="M77.7474 85.0602L77.8459 85.1202C77.6833 85.581 77.6833 85.6453 77.701 86.1254C77.4535 86.0501 77.3659 86.0139 77.1321 85.9026C76.9221 85.5864 76.9437 85.7182 76.9825 85.3917C77.3358 85.0798 77.2454 85.1693 77.7474 85.0602Z" fill="#F0E5FE"/>
<path d="M52.2905 69.0822C57.326 69.0275 62.4823 69.1757 67.5292 69.145C68.414 69.1397 70.2897 68.9193 70.7935 69.6809C70.9715 70.3326 70.6751 70.6204 70.1336 70.9042L58.0778 70.8849C56.2625 70.8812 54.2589 70.9205 52.4464 70.8197C52.0668 70.7986 51.8176 70.6385 51.5944 70.3403C51.3906 69.6946 51.7355 69.3356 52.2905 69.0822Z" fill="#FEFEFF"/>
<path d="M52.1098 74.5154C52.1776 74.5122 52.2455 74.5102 52.3136 74.5092C56.1451 74.4479 60.0479 74.5536 63.8901 74.5389C65.9004 74.5714 67.9293 74.512 69.9358 74.6184C70.2647 74.6358 70.6813 74.8661 70.7768 75.1753C70.9369 75.6944 70.6231 75.9828 70.298 76.2529C70.1642 76.2649 69.9896 76.2849 69.8543 76.2834C64.0508 76.2179 58.2326 76.3223 52.4329 76.172C51.3743 76.1446 51.308 75.1937 52.1098 74.5154Z" fill="#FEFEFF"/>
<path d="M52.1138 79.8523C55.6256 79.7223 59.4369 79.8959 62.97 79.8944C64.0704 79.8938 64.3724 80.8458 63.4382 81.6276C60.1 81.8825 55.87 81.4566 52.4602 81.5458C51.3948 81.5737 51.2354 80.6084 52.1138 79.8523Z" fill="#FEFEFF"/>
<path d="M52.3963 85.3234C53.256 85.3101 54.1645 85.193 54.6955 86.0398C54.7942 86.65 54.5199 86.9402 53.8952 87.0685C53.0289 87.1164 51.8793 87.2193 51.3901 86.3015C51.3413 85.7394 51.9212 85.4701 52.3963 85.3234Z" fill="#FEFEFF"/>
<path d="M62.63 91.8255C63.1995 91.8685 63.5143 92.0062 63.7849 92.5009C63.7547 92.9522 63.7628 92.8213 63.4632 93.2296C62.851 93.2131 62.5499 93.1121 62.3062 92.5572C62.3125 92.1828 62.3859 92.1413 62.63 91.8255Z" fill="#F0E5FE"/>
<path d="M57.5256 88.4426C58.0213 88.526 58.5035 88.5534 58.7859 89.0158C58.7969 89.4426 58.8238 89.2763 58.5409 89.7118C58.0443 89.6089 57.5946 89.5671 57.3335 89.0815C57.3278 88.6805 57.2998 88.8393 57.5256 88.4426Z" fill="#F0E5FE"/>
<path d="M70.8166 84.8079C71.2731 84.775 71.6242 84.722 71.9977 85.0032C71.992 85.2624 72.018 85.1647 71.7784 85.3994C71.3832 85.4154 70.8066 85.4672 70.5054 85.2153C70.5445 84.9434 70.5245 85.0346 70.8166 84.8079Z" fill="#F0E5FE"/>
<path d="M79.2618 124.223C79.647 124.078 80.0806 124.155 80.3921 124.424C80.7036 124.693 80.8433 125.11 80.7563 125.513C80.6693 125.915 80.3695 126.237 79.9747 126.353C79.3947 126.524 78.7837 126.205 78.5918 125.632C78.4 125.058 78.696 124.436 79.2618 124.223Z" fill="#C3B3F8"/>
<path d="M107.469 117.889C108.038 117.693 108.659 117.99 108.864 118.556C109.068 119.122 108.78 119.747 108.216 119.96C107.845 120.1 107.426 120.029 107.122 119.775C106.817 119.52 106.673 119.121 106.745 118.73C106.817 118.34 107.094 118.018 107.469 117.889Z" fill="#C3B3F8"/>
<path d="M105.037 111.914C105.628 111.801 106.198 112.188 106.31 112.779C106.422 113.369 106.035 113.938 105.444 114.051C104.854 114.163 104.285 113.775 104.172 113.185C104.06 112.595 104.447 112.026 105.037 111.914Z" fill="#C3B3F8"/>
<path d="M77.3596 117.37C77.9374 117.293 78.4712 117.691 78.5629 118.266C78.6545 118.842 78.2704 119.385 77.6971 119.491C77.3133 119.562 76.9211 119.42 76.6727 119.119C76.4242 118.818 76.3587 118.406 76.5013 118.042C76.6441 117.679 76.9726 117.422 77.3596 117.37Z" fill="#C3B3F8"/>
<path d="M101.739 105.78C102.275 105.695 102.782 106.045 102.893 106.575C103.004 107.105 102.679 107.629 102.155 107.765C101.792 107.859 101.407 107.747 101.153 107.472C100.899 107.197 100.817 106.804 100.94 106.45C101.062 106.097 101.37 105.839 101.739 105.78Z" fill="#C3B3F8"/>
<path d="M74.6577 110.904C75.164 110.691 75.7476 110.927 75.9635 111.432C76.1792 111.937 75.9463 112.521 75.4421 112.74C74.9345 112.959 74.3449 112.724 74.1277 112.216C73.9103 111.707 74.1481 111.119 74.6577 110.904Z" fill="#C3B3F8"/>
<path d="M121.358 98.1898C121.857 98.0372 122.388 98.3081 122.557 98.8022C122.726 99.2963 122.473 99.8355 121.985 100.021C121.654 100.147 121.282 100.082 121.012 99.8526C120.743 99.623 120.621 99.2652 120.693 98.9189C120.765 98.5727 121.02 98.2933 121.358 98.1898Z" fill="#C3B3F8"/>
<path d="M97.8777 100.128C98.2029 100.019 98.5616 100.094 98.8166 100.324C99.0714 100.553 99.1829 100.902 99.1085 101.237C99.034 101.572 98.7851 101.84 98.4568 101.94C97.959 102.092 97.4319 101.815 97.2734 101.32C97.115 100.824 97.3842 100.293 97.8777 100.128Z" fill="#C3B3F8"/>
<path d="M116.38 93.0711C117.546 93.0487 118.427 93.9833 117.288 94.9397C116.101 94.9724 115.292 94.0369 116.38 93.0711Z" fill="#BFA6FC"/>
<path d="M72.0229 104.649C72.5067 104.526 73.0018 104.806 73.1445 105.284C73.2874 105.763 73.0271 106.269 72.5547 106.431C72.2318 106.541 71.874 106.467 71.6226 106.235C71.3714 106.004 71.2668 105.654 71.3503 105.323C71.4338 104.992 71.6919 104.733 72.0229 104.649Z" fill="#C3B3F8"/>
<path d="M111.252 88.5355C112.001 88.6407 112.516 89.017 112.485 89.7999C112.317 90.1592 112.241 90.1852 111.889 90.3822C111.153 90.2929 110.604 89.9307 110.641 89.1508C110.808 88.7946 110.925 88.7457 111.252 88.5355Z" fill="#BFA6FC"/>
<path d="M93.5177 95.1179C93.9285 94.8807 94.4537 95.0177 94.6963 95.4253C94.9391 95.8327 94.8091 96.3595 94.4047 96.6075C94.1384 96.7709 93.8045 96.7783 93.5313 96.6269C93.2578 96.4756 93.0871 96.1888 93.0843 95.8764C93.0815 95.5639 93.2471 95.2742 93.5177 95.1179Z" fill="#C3B3F8"/>
<path d="M105.678 84.6596C106.836 84.9818 107.467 85.7253 106.162 86.4191C105.543 86.2136 104.911 85.9092 105.025 85.1666C105.227 84.8473 105.33 84.8227 105.678 84.6596Z" fill="#BFA6FC"/>
<path d="M68.6301 99.0185C68.9117 98.9015 69.2346 98.9448 69.4755 99.1321C69.7163 99.3193 69.8378 99.6214 69.7938 99.9232C69.7497 100.225 69.5468 100.48 69.2626 100.59C68.83 100.759 68.3423 100.548 68.1691 100.117C67.9958 99.6865 68.2013 99.1966 68.6301 99.0185Z" fill="#C3B3F8"/>
<path d="M99.4303 81.4728C100.406 81.4422 101.302 81.8493 100.689 82.9211C100.063 82.9962 99.3137 82.8952 99.1075 82.2051C99.1647 81.7326 99.1121 81.9129 99.4303 81.4728Z" fill="#BFA6FC"/>
<path d="M88.8479 90.576C89.8446 90.7228 90.5167 91.48 89.5468 92.2606C88.3932 92.1798 87.9239 91.428 88.8479 90.576Z" fill="#C3B3F8"/>
<path d="M93.2933 78.9979C93.9534 78.9735 94.3807 79.0397 94.7466 79.6071C94.7454 80.0807 94.7818 79.8944 94.4961 80.3606C93.9369 80.3851 93.3095 80.2943 93.0482 79.7404C93.0584 79.2633 93.0149 79.4526 93.2933 78.9979Z" fill="#BFA6FC"/>
<path d="M83.2881 87.226C83.9281 87.1813 84.3398 87.2546 84.631 87.8508C84.5632 88.3139 84.6257 88.1363 84.2841 88.5512C83.7788 88.5227 83.3386 88.4322 83.08 87.9653C83.0501 87.5219 83.0339 87.6937 83.2881 87.226Z" fill="#BFA6FC"/>
<path d="M87.1321 77.3682C87.7078 77.3921 88.0804 77.351 88.4591 77.829C88.4822 78.2422 88.4978 78.0835 88.26 78.5172C87.7117 78.5108 87.2253 78.5264 86.9001 78.0475C86.8786 77.7036 86.9294 77.6732 87.1321 77.3682Z" fill="#BFA6FC"/>
<path d="M80.7416 76.792C81.1388 76.7658 81.4583 76.7157 81.8426 76.8137C82.1104 77.0815 82.0337 76.9442 82.0901 77.382C81.6772 77.4031 81.3805 77.4416 80.9742 77.3528C80.6972 77.1064 80.7738 77.2396 80.7416 76.792Z" fill="#BFA6FC"/>
<path d="M113.015 35.2031C112.893 34.3152 112.868 33.4176 112.938 32.5245C113.207 29.1619 114.854 26.0407 117.516 23.8497C120.19 21.6368 123.674 20.5494 127.187 20.8307C130.677 21.1052 133.911 22.7054 136.175 25.2785C138.016 27.363 139.108 29.9658 139.285 32.6975C139.336 33.5002 139.304 34.1303 139.236 34.9263L139.233 34.9627C142.421 36.2224 144.97 38.636 146.332 41.6855C147.72 44.7821 147.774 48.283 146.484 51.4185C145.189 54.5698 142.64 57.0923 139.406 58.4253C136.186 59.7549 132.55 59.7964 129.299 58.5408C128.447 58.2095 127.631 57.796 126.865 57.3068C126.748 57.2329 126.447 57.0405 126.356 56.951L126.342 56.9532C125.262 57.7757 123.907 58.4653 122.611 58.9C119.302 60.0063 115.673 59.8016 112.521 58.3311C109.356 56.8556 106.932 54.2242 105.789 51.0209C104.647 47.8222 104.874 44.3176 106.417 41.2797C107.555 39.0344 109.357 37.1635 111.596 35.9024C111.957 35.6987 112.62 35.3457 113.013 35.2151L113.015 35.2031Z" fill="#4603FA"/>
<path d="M126.342 56.9532C125.262 57.7757 123.907 58.4653 122.611 58.9C119.302 60.0063 115.673 59.8016 112.521 58.3311C109.356 56.8556 106.932 54.2242 105.789 51.0209C104.647 47.8222 104.874 44.3176 106.417 41.2797C107.555 39.0344 109.357 37.1635 111.596 35.9024C111.957 35.6987 112.62 35.3457 113.013 35.2151C113.152 35.9191 113.214 36.3873 113.434 37.1054C114.297 39.9265 116.148 42.3729 118.671 44.0289C119.428 44.5259 120.237 44.9465 121.084 45.2842C120.687 48.6727 121.714 52.0731 123.935 54.7281C124.736 55.6814 125.364 56.204 126.342 56.9532Z" fill="#8894F9"/>
<path d="M139.233 34.9627C142.421 36.2224 144.97 38.636 146.332 41.6855C147.72 44.7821 147.774 48.283 146.484 51.4185C145.189 54.5698 142.64 57.0923 139.406 58.4253C136.186 59.7549 132.55 59.7964 129.299 58.5408C128.447 58.2095 127.631 57.796 126.865 57.3068C126.748 57.2329 126.447 57.0405 126.356 56.951C126.576 56.7573 126.86 56.5536 127.097 56.3501C127.637 55.8875 128.134 55.3815 128.585 54.8377C130.916 52.0329 131.778 48.725 131.372 45.1856C132.364 44.7549 133.145 44.3317 134.024 43.6971C136.367 42.0057 138.061 39.6132 138.842 36.8945C139.031 36.2307 139.132 35.6403 139.233 34.9627Z" fill="#4F3FCC"/>
<path d="M126.131 36.6538L126.145 36.6529C128.51 38.3489 130.223 40.7547 131.012 43.4914C131.198 44.135 131.247 44.5682 131.372 45.1856C131.778 48.725 130.916 52.0329 128.585 54.8377C128.134 55.3815 127.637 55.8875 127.097 56.3501C126.86 56.5536 126.576 56.7573 126.356 56.951L126.342 56.9532C125.364 56.204 124.736 55.6814 123.935 54.7281C121.714 52.0731 120.687 48.6727 121.084 45.2842L121.088 45.244C121.377 42.6461 122.657 40.011 124.496 38.1023C125.027 37.5505 125.527 37.1241 126.131 36.6538Z" fill="#433457"/>
<path d="M126.131 36.6538L126.145 36.6529C128.51 38.3489 130.223 40.7547 131.012 43.4914C131.198 44.135 131.247 44.5682 131.372 45.1856C127.985 46.5334 124.502 46.6197 121.084 45.2842L121.088 45.244C121.377 42.6461 122.657 40.011 124.496 38.1023C125.027 37.5505 125.527 37.1241 126.131 36.6538Z" fill="#6B5587"/>
<path d="M113.015 35.2031C113.653 34.9541 114.189 34.7591 114.857 34.5865C117.706 33.851 120.729 34.0554 123.443 35.1672C124.196 35.475 125.511 36.1395 126.131 36.6538C125.527 37.1241 125.027 37.5505 124.496 38.1023C122.657 40.011 121.377 42.6461 121.088 45.244L121.084 45.2842C120.237 44.9465 119.428 44.5259 118.671 44.0289C116.148 42.3729 114.297 39.9265 113.434 37.1054C113.214 36.3873 113.152 35.9191 113.013 35.2151L113.015 35.2031Z" fill="#302783"/>
<path d="M126.145 36.6529C126.476 36.3606 127.386 35.8192 127.784 35.6065C130.633 34.0821 133.965 33.6227 137.144 34.3163C137.669 34.4299 138.195 34.5886 138.701 34.7648C138.817 34.8053 139.148 34.945 139.236 34.9263L139.233 34.9627C139.132 35.6403 139.031 36.2307 138.842 36.8945C138.061 39.6132 136.367 42.0057 134.024 43.6971C133.145 44.3317 132.364 44.7549 131.372 45.1856C131.247 44.5682 131.198 44.135 131.012 43.4914C130.223 40.7547 128.51 38.3489 126.145 36.6529Z" fill="#9E88BC"/>
</g>
<ellipse cx="138.52" cy="91.43" rx="13.6679" ry="6.2142" transform="rotate(23.6421 138.52 91.43)" fill="#4603FA"/>
<path d="M164.379 154.556L149.241 162.63V149.006L164.379 154.556Z" fill="#FD4831"/>
<circle cx="31.514" cy="78.5849" r="1.41916" stroke="#222222" stroke-width="2"/>
<path d="M33.5008 80.5717L32.6493 79.7202" stroke="#222222" stroke-width="2" stroke-linecap="round"/>
<path d="M28.3914 69.7865C28.8939 69.7865 29.1457 69.7864 29.3572 69.809C31.2305 70.0088 32.711 71.4884 32.9109 73.3617C32.9335 73.5733 32.9333 73.8248 32.9333 74.3275V74.932C32.4931 74.7608 32.0143 74.6654 31.5134 74.6654C31.1231 74.6655 30.7462 74.7231 30.3904 74.8295C30.4766 74.6818 30.5271 74.5108 30.5271 74.3275C30.527 73.7754 30.0792 73.3277 29.5271 73.3275H26.1208C25.5688 73.3277 25.1209 73.7754 25.1208 74.3275C25.121 74.8796 25.5688 75.3274 26.1208 75.3275H29.3347C29.0636 75.5093 28.8159 75.7233 28.5984 75.9652C28.415 75.741 28.1361 75.5981 27.824 75.598H26.1208C25.5688 75.5982 25.121 76.046 25.1208 76.598C25.121 77.1501 25.5688 77.5979 26.1208 77.598H27.7195C27.6377 77.9131 27.5945 78.2437 27.5945 78.5844C27.5945 79.56 27.9519 80.4522 28.5417 81.1381C28.4944 81.1381 28.444 81.139 28.3914 81.139C27.8892 81.139 27.638 81.1391 27.4265 81.1166C25.5532 80.9167 24.0727 79.4371 23.8728 77.5638C23.8502 77.3523 23.8503 77.1007 23.8503 76.598V74.3275C23.8503 73.8248 23.8502 73.5733 23.8728 73.3617C24.0727 71.4884 25.5532 70.0088 27.4265 69.809C27.638 69.7864 27.8892 69.7865 28.3914 69.7865ZM31.489 77.5043C31.2703 77.6189 31.0654 77.7687 30.8816 77.9525C30.6978 78.1363 30.5479 78.3412 30.4333 78.5599C30.4464 77.9828 30.9119 77.5173 31.489 77.5043ZM26.1208 71.057C25.5687 71.0572 25.1208 71.5048 25.1208 72.057C25.121 72.6091 25.5688 73.0568 26.1208 73.057H28.3914C28.9436 73.057 29.3912 72.6092 29.3914 72.057C29.3914 71.5047 28.9436 71.057 28.3914 71.057H26.1208Z" fill="#222222"/>
<defs>
<linearGradient id="paint0_linear_2003_104" x1="0" y1="85" x2="193" y2="85" gradientUnits="userSpaceOnUse">
<stop stop-color="#34009C"/>
<stop offset="0.544022" stop-color="#120036"/>
</linearGradient>
<clipPath id="clip0_2003_104">
<rect width="140.276" height="210.414" fill="white" transform="translate(18.9653 6.58588)"/>
</clipPath>
</defs>
</svg>
